<svg version="1.1" xmlns="http://www.w3.org/2000/svg" width="14" height="16" viewBox="0 0 14 14">
    <title>Redirects</title>
    <path fill="#5589a7" d="M10.565 4.686h0.644v2.003l2.791-2.817-2.792-2.817v1.671h-0.644c-2.586 0-4.043 1.917-5.33 3.606-1.156 1.52-2.156 2.834-3.77 2.834h-1.464v1.959h1.465c2.586 0 4.043-1.915 5.33-3.606 1.156-1.521 2.156-2.834 3.77-2.834zM3.787 5.921c0.111-0.142 0.221-0.288 0.334-0.436 0.273-0.36 0.563-0.739 0.876-1.117-0.925-0.864-2.040-1.501-3.532-1.501h-1.465v1.959h1.465c0.929 0 1.653 0.436 2.322 1.095zM11.208 9.306h-0.644c-0.985 0-1.741-0.491-2.444-1.217-0.070 0.092-0.141 0.185-0.212 0.278-0.309 0.406-0.64 0.841-1.007 1.273 0.949 0.927 2.1 1.627 3.662 1.627h0.644v1.679l2.792-2.817-2.792-2.818v1.996z"></path>
</svg>
